<svg xmlns="http://www.w3.org/2000/svg" viewBox="0 0 500 500"><g id="freepik--background-simple--inject-3"><path d="M407.93,190.39s-11.34-25.33-54.67-58.67-96.67-37.33-121.33-23.33-30,28.67-52,54-52,35.33-84,51.33-40,52.67-29.34,85.34,51.34,35.33,76.67,26.66,60.67-50,125.33-40,66,40,130,42S437.26,237.72,407.93,190.39ZM93.26,250.06l-.6-6,6-.61.61,6Zm87.94,39.29-1.45-5.89,5.89-1.45,1.45,5.89Zm22.16-70.12L192.54,215l4.25-10.82,10.82,4.25Zm14.82-54.71-1.45-5.89,5.89-1.45,1.45,5.89Zm77.88,43.59-1.45-5.89,5.89-1.45,1.45,5.89Zm22.73,70L308,273.86,312.23,263,323,267.29Zm7.75-126.28-10.82-4.25L320,136.76,330.79,141Zm84.64,140.82-.6-6,6-.61.6,6Z" style="fill:#CEC2F5"></path><path d="M407.93,190.39s-11.34-25.33-54.67-58.67-96.67-37.33-121.33-23.33-30,28.67-52,54-52,35.33-84,51.33-40,52.67-29.34,85.34,51.34,35.33,76.67,26.66,60.67-50,125.33-40,66,40,130,42S437.26,237.72,407.93,190.39ZM93.26,250.06l-.6-6,6-.61.61,6Zm87.94,39.29-1.45-5.89,5.89-1.45,1.45,5.89Zm22.16-70.12L192.54,215l4.25-10.82,10.82,4.25Zm14.82-54.71-1.45-5.89,5.89-1.45,1.45,5.89Zm77.88,43.59-1.45-5.89,5.89-1.45,1.45,5.89Zm22.73,70L308,273.86,312.23,263,323,267.29Zm7.75-126.28-10.82-4.25L320,136.76,330.79,141Zm84.64,140.82-.6-6,6-.61.6,6Z" style="fill:#fff;opacity:0.7000000000000001"></path></g><g id="freepik--Connectivity--inject-3"><path d="M364.26,350.33A123,123,0,0,0,338.51,353l-52.07-31.54c6.73-3.15,10.82-7.31,10.82-11.88,0-9.83-18.95-17.81-42.33-17.81s-42.34,8-42.34,17.81c0,4.66,4.27,8.9,11.24,12.08l-50,31.74a121.68,121.68,0,0,0-27.57-3c-31.17,0-56.44,10.63-56.44,23.74s25.27,23.74,56.44,23.74,56.44-10.63,56.44-23.74c0-7.12-7.46-13.5-19.26-17.85L233,324.76a94.66,94.66,0,0,0,44.19-.09l51.27,31.05c-12.6,4.35-20.63,11-20.63,18.35,0,13.11,25.27,23.74,56.44,23.74s56.44-10.63,56.44-23.74S395.43,350.33,364.26,350.33Zm-178,22.25c0,8.47-17.9,15.34-40,15.34s-40-6.87-40-15.34,17.9-15.33,40-15.33S186.24,364.12,186.24,372.58Zm38.7-64.16c0-6.35,13.43-11.5,30-11.5s30,5.15,30,11.5-13.42,11.49-30,11.49S224.94,314.77,224.94,308.42Zm139.32,79.5c-22.08,0-40-6.87-40-15.34s17.9-15.33,40-15.33,40,6.87,40,15.33S386.34,387.92,364.26,387.92Z" style="fill:#CEC2F5"></path></g><g id="freepik--character-1--inject-3"><path d="M176,358s10.57-1.21,12.35-2.06,4.16.34,2.92,1.69a85.57,85.57,0,0,1-8,7.58c-2.51,1.92-8.05,5.78-9.62,5.32s-4.24-8.63-4.24-8.63S174.31,361.14,176,358Z" style="fill:#fff"></path><path d="M173.91,371a1.23,1.23,0,0,1-.39,0c-1.69-.48-3.93-7-4.58-9a.56.56,0,0,1,.05-.42.52.52,0,0,1,.36-.23s4.66-.73,6.2-3.64a.49.49,0,0,1,.38-.26c2.92-.34,10.8-1.36,12.19-2a3.18,3.18,0,0,1,3.7.58,1.43,1.43,0,0,1-.19,1.9,87.12,87.12,0,0,1-8,7.64C182.34,366.52,176.32,371,173.91,371Zm-3.84-8.77c1.24,3.66,3,7.54,3.73,7.76,1.06.31,5.5-2.42,9.18-5.23a86.84,86.84,0,0,0,7.91-7.53c.33-.36.19-.54.13-.62a2.23,2.23,0,0,0-2.47-.28c-1.7.81-10.38,1.86-12.25,2.08C174.79,361,171.43,362,170.07,362.25Z" style="fill:#263238"></path><path d="M120.54,368.4s7.06,4.79,8.75,5.85,4.15.67,4,2.65-4.87,1.61-9.25,1.8a29.3,29.3,0,0,1-12.47-2.87c-2.53-1.31.31-5.66.78-7.65S120.54,368.4,120.54,368.4Z" style="fill:#fff"></path><path d="M123.34,379.21a30.28,30.28,0,0,1-12-2.94c-2.29-1.18-1.05-4.19-.14-6.39a14.53,14.53,0,0,0,.66-1.81,1.32,1.32,0,0,1,.65-.84c1.83-1.08,7.57.51,8.22.69a.61.61,0,0,1,.14.07c.07.05,7.07,4.79,8.74,5.83a6.56,6.56,0,0,0,1.76.68c1.21.35,2.59.74,2.42,2.45-.2,2.06-3.49,2.12-7.29,2.18-.8,0-1.63,0-2.44.07Zm-9-11.36a3,3,0,0,0-1.4.24.38.38,0,0,0-.18.2,13.42,13.42,0,0,1-.71,2c-1,2.39-1.69,4.42-.32,5.12A29.05,29.05,0,0,0,124,378.2c.82,0,1.65-.05,2.46-.07,2.91-.05,6.2-.11,6.32-1.28.07-.8-.38-1-1.7-1.38a7.94,7.94,0,0,1-2-.8c-1.62-1-7.94-5.29-8.7-5.81A26.45,26.45,0,0,0,114.36,367.85Z" style="fill:#263238"></path><path d="M121.33,264.14s-2.57,6.58-2.33,12.53a19.31,19.31,0,0,0,3.27,10l.29,32.1s-6.54,10.89-6.37,15-4.71,36.2-4.71,36.2a4.83,4.83,0,0,0,3.4.89c1.8-.33,5.64-1.53,5.64-1.53s10.41-36.17,12.33-39.88,3.93-11.3,4.78-15.74,1.73-14.57,1.73-14.57,11.38,18.43,11.95,19.44,2.31,12.08,3.5,15.92a69.38,69.38,0,0,0,6.27,13.72c2.5,4,8.65,14.93,8.65,14.93a6.67,6.67,0,0,0,4.1-1.21,7.05,7.05,0,0,0,2.16-4s-7.3-19.9-8.05-25.56-4.33-16.92-5.3-21.54-15.2-35.37-15.2-35.37l-2.29-11.56Z" style="fill:#263238"></path><path d="M114.25,371.42a5.53,5.53,0,0,1-3.07-1.06.51.51,0,0,1-.2-.47c0-.32,4.88-32.06,4.71-36.1s5.61-13.91,6.37-15.18l-.29-31.81a19.82,19.82,0,0,1-3.27-10.11c-.25-6,2.26-12.46,2.37-12.73a.49.49,0,0,1,.46-.32l23.82-.21h0a.5.5,0,0,1,.49.4l2.28,11.5c.87,1.88,14.25,30.86,15.21,35.43.36,1.74,1.12,4.5,1.92,7.42a128.57,128.57,0,0,1,3.38,14.15c.74,5.55,8,25.26,8,25.46a.54.54,0,0,1,0,.25,7.49,7.49,0,0,1-2.36,4.29,7.07,7.07,0,0,1-4.43,1.31.48.48,0,0,1-.4-.25c-.07-.11-6.18-10.92-8.64-14.9a69.5,69.5,0,0,1-6.32-13.84c-.64-2-1.42-6.06-2.11-9.6-.53-2.73-1.14-5.81-1.36-6.22-.46-.84-8.56-14-11.15-18.15-.28,3-.94,9.74-1.59,13.13-.83,4.31-2.88,12.09-4.84,15.87-1.87,3.62-12.19,39.43-12.29,39.79a.51.51,0,0,1-.33.34c-.16.05-3.89,1.21-5.7,1.54A3.58,3.58,0,0,1,114.25,371.42ZM112,369.73a4.21,4.21,0,0,0,2.77.64c1.49-.28,4.44-1.16,5.32-1.44,1-3.52,10.44-36.13,12.29-39.71s3.93-11.35,4.74-15.6,1.71-14.42,1.72-14.53a.5.5,0,0,1,.38-.44.52.52,0,0,1,.55.22c.46.76,11.39,18.46,12,19.47a45.57,45.57,0,0,1,1.47,6.52c.68,3.51,1.46,7.5,2.08,9.49A68.17,68.17,0,0,0,161.51,348c2.26,3.66,7.58,13,8.52,14.69a6.06,6.06,0,0,0,3.49-1.11,6.35,6.35,0,0,0,1.95-3.53c-.68-1.88-7.3-20.07-8-25.55a130.08,130.08,0,0,0-3.35-14c-.84-3.07-1.57-5.72-1.94-7.49-1-4.51-15-34.95-15.16-35.26a.49.49,0,0,1,0-.11l-2.21-11.16-23.06.21c-.5,1.37-2.39,7-2.18,12a18.9,18.9,0,0,0,3.17,9.69.59.59,0,0,1,.1.29l.29,32.11a.48.48,0,0,1-.07.26c-.06.11-6.46,10.81-6.3,14.75S112.56,366.2,112,369.73Z" style="fill:#263238"></path><path d="M167.75,228s-.25-5.95,1.56-6,6,.79,5.53,2.11a6.84,6.84,0,0,1-1.21,2.12l-2.62-.67,3.54,4s5.79-3.87,4.09-1.21-1.57,5.76-3.36,6.36a62.24,62.24,0,0,0-6.35,3.11L143,249l-1.48-10.56,25.27-2.86Z" style="fill:#fff"></path><path d="M143,249.5a.45.45,0,0,1-.25-.07.5.5,0,0,1-.25-.36L141,238.51a.5.5,0,0,1,.44-.57l24.87-2.81.93-7.13c-.06-1.56-.08-6.41,2-6.5,1.56-.07,5,.54,5.84,1.71a1.11,1.11,0,0,1,.18,1.06,7.25,7.25,0,0,1-1.31,2.3.5.5,0,0,1-.49.14l-1-.26,2.17,2.45c3.86-2.52,4.39-2,4.62-1.78.47.47,0,1.19-.19,1.5a13.94,13.94,0,0,0-1.4,3.25c-.51,1.55-.95,2.89-2.22,3.31a61.35,61.35,0,0,0-6.27,3.08l-26,11.2A.79.79,0,0,1,143,249.5Zm-.91-10.62,1.31,9.4,25.35-10.92a62.06,62.06,0,0,1,6.39-3.13c.8-.26,1.15-1.33,1.59-2.68a14.87,14.87,0,0,1,1.51-3.47l0-.05a23.38,23.38,0,0,0-3.43,1.94.49.49,0,0,1-.65-.08l-3.53-4a.5.5,0,0,1,.5-.81l2.3.59a6.5,6.5,0,0,0,.93-1.73s0-.06,0-.14c-.53-.7-3.37-1.36-5-1.3-.77,0-1.19,2.93-1.08,5.51a.25.25,0,0,1,0,.08l-1,7.55a.51.51,0,0,1-.44.44Z" style="fill:#263238"></path><path d="M143.75,209.77s2.56,13.33,2.08,20.3-.73,19.66-.46,26.13,1.43,8.59-.06,9.74-7,1.84-14.28,2.14-10.08-.82-10.3-2.36-.08-20.7-1.1-26.52-.21-23.63,2.23-28.21,14.74-9.58,16.6-9.5S143.75,209.77,143.75,209.77Z" style="fill:#CEC2F5"></path><path d="M128.77,268.63c-5.4,0-8.27-.95-8.53-2.84-.07-.49-.1-2.32-.16-5.78-.1-6.68-.25-16.77-.94-20.73-1-6-.18-23.91,2.28-28.53,2.58-4.85,15.12-9.83,17.06-9.76s4.89,6.59,5.73,8.59l0,.09c.1.55,2.57,13.48,2.08,20.44-.49,7.15-.72,19.82-.46,26.07.1,2.31.31,4,.47,5.4.3,2.48.47,3.85-.72,4.76-1.5,1.14-6.4,1.9-14.56,2.24C130.25,268.61,129.49,268.63,128.77,268.63ZM138.41,202c-1.69,0-13.77,4.83-16.11,9.23s-3.18,22.11-2.18,27.89c.71,4,.86,14.18,1,20.89,0,2.91.08,5.2.15,5.65s1,2.3,9.78,1.93c7.61-.32,12.71-1.06,14-2,.7-.53.64-1.35.34-3.83-.17-1.4-.38-3.14-.47-5.49-.27-6.27,0-19,.46-26.18.46-6.61-1.89-19.22-2.06-20.13-1.6-3.79-3.89-7.88-4.83-7.92Z" style="fill:#263238"></path><polygon points="144.95 208.95 148.24 213.91 148.42 218.23 144.27 214.84 144.95 208.95" style="fill:#fff"></polygon><path d="M148.42,218.73a.47.47,0,0,1-.31-.12L144,215.23a.49.49,0,0,1-.18-.44l.68-5.9a.51.51,0,0,1,.38-.43.48.48,0,0,1,.53.21l3.3,5a.5.5,0,0,1,.08.26l.18,4.32a.5.5,0,0,1-.27.46A.46.46,0,0,1,148.42,218.73Zm-3.63-4.1,3.09,2.51-.13-3.07-2.46-3.71Z" style="fill:#263238"></path><path d="M149,191.78l-8.71,9.79,3.16,9.29,11.72-4.35s-2.12-6.4-2.42-9.79-.39-5.7-.39-5.7S151.4,189.37,149,191.78Z" style="fill:#fff"></path><path d="M143.48,211.36a.54.54,0,0,1-.21-.05A.5.5,0,0,1,143,211l-3.17-9.29a.51.51,0,0,1,.1-.49l8.71-9.79,0,0a3.71,3.71,0,0,1,2.87-1.45,1.75,1.75,0,0,1,1.28.79.48.48,0,0,1,.07.23s.1,2.35.39,5.68,2.37,9.61,2.39,9.67a.5.5,0,0,1-.3.63l-11.71,4.35Zm-2.6-9.68,2.91,8.53,10.78-4a56.21,56.21,0,0,1-2.28-9.44c-.25-2.86-.36-5-.39-5.56a.77.77,0,0,0-.49-.24,3,3,0,0,0-2,1.15Z" style="fill:#263238"></path><path d="M170.51,188.42s1.26.41,3.34-1.53,2.62-7.68-.57-13.73-15-8-20.81-6.24-11.55,8.36-11.58,15,4,10.81,6.21,11.8a12.21,12.21,0,0,0,5.75,1c1.55-.06,8.16-.8,10.88-2.15a12.08,12.08,0,0,0,4.19-3.42Z" style="fill:#263238"></path><path d="M152.06,195.23a12.35,12.35,0,0,1-5.17-1.06c-2.13-1-6.53-5.21-6.5-12.25s6.2-13.71,11.94-15.48c6.1-1.88,18.12.28,21.39,6.49s2.8,12.15.47,14.33c-1.88,1.74-3.19,1.74-3.66,1.67l-2.31.65A12.78,12.78,0,0,1,164,193c-2.84,1.41-9.61,2.14-11.08,2.2Zm5.26-28.44a16.14,16.14,0,0,0-4.7.61c-5.4,1.66-11.2,7.89-11.23,14.53s4,10.46,5.91,11.33a11.7,11.7,0,0,0,5.53,1c1.7-.07,8.13-.83,10.68-2.1a11.55,11.55,0,0,0,4-3.25.48.48,0,0,1,.27-.2l2.6-.72a.45.45,0,0,1,.28,0s1.09.22,2.85-1.42c2-1.87,2.33-7.43-.67-13.12C170.53,169,163.17,166.79,157.32,166.79Z" style="fill:#263238"></path><path d="M154.4,190.94a4.42,4.42,0,0,0-2.05-4.55c-2.69-1.74-3.3,2.3-2.89,4.6a10.19,10.19,0,0,0,1.06,3.36s-1.68,4.24-1.07,7.61,6.38,8.54,7.77,8.48,6.2-6.74,6.2-6.74,3.55-.15,4-1.4-.24-5.86-.24-5.86a66.7,66.7,0,0,0,3.56-7.26c1-2.66-2.36-4.69-3.63-5.56s-3.49-2.33-4.21-.91.72,6.15-.82,6.37-3.45-1.4-3.45-1.4-.62,3.73-2.16,3.95A1.88,1.88,0,0,1,154.4,190.94Z" style="fill:#fff"></path><path d="M157.2,211c-1.83,0-7.62-5.44-8.24-8.9-.55-3.07.67-6.73,1-7.66a12.35,12.35,0,0,1-1-3.31c-.29-1.68-.1-4.43,1.24-5.32a2.08,2.08,0,0,1,2.43.21,4.93,4.93,0,0,1,2.29,4.83,1.61,1.61,0,0,0,1.44.33c.8-.11,1.51-2.17,1.73-3.53a.51.51,0,0,1,.33-.39.49.49,0,0,1,.49.09c.49.41,2,1.43,3.06,1.28.44-.06.32-1.89.25-2.88a7.1,7.1,0,0,1,.2-3.21,1.48,1.48,0,0,1,1-.82c1.1-.28,2.55.57,3.95,1.54l.26.17c1.5,1,4.6,3.11,3.56,6a65.2,65.2,0,0,1-3.51,7.19c.13.93.6,4.69.2,5.91-.45,1.37-3.18,1.67-4.17,1.74-1.57,2.16-5,6.7-6.45,6.75Zm-6-24.48a.7.7,0,0,0-.41.12c-.8.53-1.08,2.72-.8,4.32a9.76,9.76,0,0,0,1,3.17.55.55,0,0,1,0,.45s-1.62,4.15-1.05,7.34,6.18,8.08,7.24,8.08h0c.74-.08,3.6-3.45,5.83-6.54a.49.49,0,0,1,.38-.21c1.35-.06,3.31-.46,3.51-1.06.27-.83,0-3.89-.27-5.63a.59.59,0,0,1,.06-.32,63.91,63.91,0,0,0,3.53-7.18c.78-2.13-1.79-3.87-3.18-4.8l-.26-.18c-.64-.44-2.34-1.61-3.14-1.39a.51.51,0,0,0-.34.3,7.23,7.23,0,0,0-.09,2.69c.12,1.85.25,3.75-1.1,3.94a5.09,5.09,0,0,1-3.2-1c-.3,1.25-1,3.38-2.42,3.58a2.38,2.38,0,0,1-2.54-.94.47.47,0,0,1-.05-.35,3.89,3.89,0,0,0-1.83-4A1.7,1.7,0,0,0,151.16,186.47Zm3.24,4.47h0Z" style="fill:#263238"></path><polygon points="140.82 198.77 145.87 212.62 142.38 217.86 136.42 200.8 140.82 198.77" style="fill:#fff"></polygon><path d="M142.38,218.36h-.06a.49.49,0,0,1-.41-.33L136,201a.51.51,0,0,1,.26-.62l4.4-2a.5.5,0,0,1,.4,0,.53.53,0,0,1,.28.29l5.05,13.85a.48.48,0,0,1-.05.45l-3.49,5.25A.5.5,0,0,1,142.38,218.36ZM137,201.07l5.48,15.68,2.8-4.2-4.79-13.1Z" style="fill:#263238"></path><polygon points="179.16 215.9 171.71 236.15 173.52 236.07 181 216.6 179.16 215.9" style="fill:#263238"></polygon><path d="M171.71,236.65a.49.49,0,0,1-.4-.21.48.48,0,0,1-.07-.46l7.45-20.25a.49.49,0,0,1,.65-.3l1.84.7a.55.55,0,0,1,.28.26.53.53,0,0,1,0,.39L174,236.25a.48.48,0,0,1-.45.32l-1.81.08Zm7.74-20.11-7,19.08.73,0,7.18-18.7Z" style="fill:#263238"></path><path d="M135.64,247s28.41-8.17,29.17-8.72-.43-10.34-.43-10.34l6.44-.79s2.09.43.83,1.26-3.55,2-3.55,2l7.71-1.61,2-2.67s1.6,1.23.87,2.29a8.57,8.57,0,0,0-1.4,3.69c0,.77-.1,3.88-1.85,5.25s-11.89,7-16.7,9.5S139,260,134.92,260.73s-7.48-11.6-7.48-11.6Z" style="fill:#fff"></path><path d="M134.58,261.26c-4.22,0-7.28-10.74-7.62-12a.46.46,0,0,1,.05-.38.53.53,0,0,1,.31-.24l8.19-2.15c11-3.15,27.43-8,29-8.63.28-.84-.06-5.62-.58-9.89a.5.5,0,0,1,.44-.56l6.44-.78h.16c.44.09,1.48.38,1.62,1.09.05.27,0,.68-.62,1.08l-.55.35,4.15-.87,1.84-2.52a.5.5,0,0,1,.71-.1c.74.56,1.77,1.82,1,3a8.1,8.1,0,0,0-1.31,3.38s.14,4-2.05,5.68c-1.79,1.39-11.88,7-16.77,9.54-1.69.89-4.72,2.86-7.92,4.94-6.21,4-13.24,8.59-16,9.05A2,2,0,0,1,134.58,261.26Zm-6.52-11.78c1,3.57,3.92,11.24,6.77,10.76,2.56-.43,9.8-5.13,15.62-8.91,3.37-2.19,6.28-4.07,8-5,4.74-2.49,14.91-8.11,16.63-9.45,1.48-1.15,1.7-3.89,1.66-4.84a8.94,8.94,0,0,1,1.49-4c.27-.4-.08-.92-.39-1.26L176.21,229a.52.52,0,0,1-.3.2l-7.7,1.61a.51.51,0,0,1-.58-.32.52.52,0,0,1,.25-.62s2.27-1.12,3.49-1.92l.11-.08a2.56,2.56,0,0,0-.69-.26l-5.86.71c1.14,9.61.41,10.14.17,10.31-.77.56-22.64,6.88-29.32,8.8h0Zm7.58-2.51h0Z" style="fill:#263238"></path><path d="M127,213.66s-5.34,2.55-5.15,7,2.31,30.72,2.31,30.72l12.8-3.64.16-14.77s2.09-5.78,2.26-7.86-4.44-7.33-4.44-7.33" style="fill:#CEC2F5"></path><path d="M124.17,251.83a.52.52,0,0,1-.29-.09.49.49,0,0,1-.21-.37c0-.26-2.13-26.39-2.31-30.74-.2-4.67,5.2-7.31,5.43-7.42a.5.5,0,1,1,.43.9s-5,2.47-4.87,6.48,2,26.12,2.27,30.1l11.85-3.38.16-14.39a.51.51,0,0,1,0-.17c0-.05,2.07-5.74,2.24-7.73.11-1.36-2.6-5-4.33-7a.5.5,0,0,1,.75-.66c.49.56,4.76,5.47,4.57,7.7-.17,2-2,7.18-2.26,7.91l-.16,14.69a.5.5,0,0,1-.37.47l-12.8,3.64A.3.3,0,0,1,124.17,251.83Z" style="fill:#263238"></path><path d="M137.13,233.42h0a.5.5,0,0,1-.47-.53c.31-4.44-3.92-10.06-4-10.11a.5.5,0,1,1,.8-.61c.18.24,4.49,6,4.16,10.79A.5.5,0,0,1,137.13,233.42Z" style="fill:#263238"></path></g><g id="freepik--character-2--inject-3"><path d="M263.09,152.14s2.3-5.41,7.87-4.59,10,12.46,10.33,17.7-2.62,11.15-1.8,13.94,7.05-.17,7.05,3.28-2.3,9.18-9.68,9.83-15.57-6.55-17.05-12.13,2.3-14.43,2.3-18.52A65.17,65.17,0,0,1,263.09,152.14Z" style="fill:#263238"></path><path d="M275.94,192.85c-7.14,0-15.08-6.76-16.61-12.55-1-3.63.18-8.42,1.19-12.65a31.12,31.12,0,0,0,1.09-6,64.65,64.65,0,0,1,1-9.6l0-.11c0-.06,2.52-5.75,8.4-4.89,6,.89,10.44,13.06,10.76,18.17a28.42,28.42,0,0,1-1.13,8.16c-.57,2.37-1.06,4.42-.7,5.67.27.9,1.4,1,3.1,1s4,.08,4,2.39c0,3.26-2.12,9.62-10.13,10.33C276.59,192.83,276.26,192.85,275.94,192.85Zm-12.37-40.57a65.5,65.5,0,0,0-1,9.37,31.45,31.45,0,0,1-1.11,6.23c-1,4.12-2.1,8.78-1.21,12.16,1.35,5.11,9.27,12.41,16.53,11.77s9.22-6.4,9.22-9.34c0-1.2-.92-1.35-3-1.39-1.66,0-3.54-.08-4-1.75-.45-1.5.07-3.67.68-6.19a27.79,27.79,0,0,0,1.1-7.86c-.34-5.45-4.76-16.48-9.9-17.24C266,147.33,263.81,151.77,263.57,152.28Z" style="fill:#263238"></path><path d="M251.28,150.66a8.4,8.4,0,0,0-5.41,3.28c-1.8,2.79,1.81,10.16,3.61,11.48s7,4.42,10.33,4.42,9.67-.49,10-4.42-2.95-11.15-7.21-14.6S254.89,144.27,251.28,150.66Z" style="fill:#263238"></path><path d="M259.81,170.34c-3.33,0-8.59-3-10.62-4.52s-5.73-9.07-3.74-12.15a8.68,8.68,0,0,1,5.52-3.46c1.27-2.19,2.63-3.4,4.14-3.69,2.42-.46,4.71,1.41,7.37,3.57l.43.35c4.57,3.68,7.73,11.1,7.4,15C270,169.71,263.58,170.34,259.81,170.34Zm-4-22.88a2.47,2.47,0,0,0-.54,0c-1.25.23-2.42,1.35-3.58,3.4l-.12.21-.25,0a8,8,0,0,0-5.06,3.05c-1.61,2.5,1.84,9.61,3.49,10.8,1.86,1.36,7,4.33,10,4.33,2.76,0,9.21-.38,9.5-4s-2.77-10.72-7-14.16l-.43-.34C259.61,149.05,257.65,147.46,255.84,147.46Z" style="fill:#263238"></path><path d="M249.32,164.76s-1.31-2-1.81-1a4.71,4.71,0,0,0,.17,4.42,5.82,5.82,0,0,0,2.13,1.81Z" style="fill:#fff"></path><path d="M250.39,170.8l-.78-.33a6.45,6.45,0,0,1-2.33-2,5.18,5.18,0,0,1-.21-4.95.89.89,0,0,1,.76-.55c.79-.06,1.6,1,1.9,1.48l.07.11ZM248,164a4.22,4.22,0,0,0,.13,3.87,6,6,0,0,0,1.14,1.16l-.39-4.12A3.18,3.18,0,0,0,248,164Z" style="fill:#263238"></path><path d="M248.22,299.54s-6.63,7.95-5,9,6.63-2.92,8.49-4.77,2.65-1.06,2.38-3.71S248.22,299.54,248.22,299.54Z" style="fill:#fff"></path><path d="M243.83,309.22a1.63,1.63,0,0,1-.92-.25,1,1,0,0,1-.46-.76c-.3-2,4.43-7.85,5.39-9l.08-.1.12,0c.41-.16,4-1.47,5.67-.45a1.8,1.8,0,0,1,.84,1.4c.19,1.93-.14,2.34-1.15,3a7.73,7.73,0,0,0-1.38,1.1C250.88,305.27,246.35,309.22,243.83,309.22Zm4.69-9.26c-3.09,3.73-5.5,7.61-5.06,8.17,1.08.72,5.51-2.36,7.85-4.71a9.34,9.34,0,0,1,1.53-1.22c.72-.48.87-.58.72-2.08a.79.79,0,0,0-.38-.65C252.27,298.91,249.89,299.46,248.52,300Z" style="fill:#263238"></path><path d="M240.79,229.52s-2.11,14.6-1.32,21,4.77,14.84,5,17.76-.53,9.81.53,14.05,3.18,17.24,3.18,17.24a3.76,3.76,0,0,0,2.65,1.32,8.26,8.26,0,0,0,3.18-.79s1.06-43.22,1.06-47.46,0-10.87,2.66-13.26,9.81-7,10.07-11.47-15.91-5-20.68-4.44S240.79,229.52,240.79,229.52Z" style="fill:#CEC2F5"></path><path d="M250.87,301.36a4.25,4.25,0,0,1-3-1.51l-.08-.1,0-.13c0-.13-2.13-13-3.18-17.2-.7-2.82-.61-6.77-.53-9.95,0-1.71.08-3.18,0-4.18a35.89,35.89,0,0,0-1.77-6A63.39,63.39,0,0,1,239,250.55c-.79-6.36,1.24-20.5,1.33-21.1v-.07c.07-.24,1.75-5.87,6.79-6.44,3.59-.39,17-.24,20.38,3a2.43,2.43,0,0,1,.86,2c-.22,3.77-4.83,7.44-8.19,10.13-.82.65-1.52,1.21-2,1.68-2.49,2.24-2.49,8.9-2.49,12.89,0,4.2-1.05,47-1.06,47.47v.3l-.26.13A8.6,8.6,0,0,1,250.87,301.36Zm-2.18-2.05a3.18,3.18,0,0,0,2.18,1.05,7.45,7.45,0,0,0,2.69-.62c.1-3.93,1.05-43.14,1.05-47.13,0-4.42,0-11.1,2.82-13.63.55-.5,1.26-1.07,2.09-1.73,3-2.42,7.63-6.08,7.83-9.4a1.5,1.5,0,0,0-.56-1.18c-2.88-2.73-15-3.24-19.58-2.73-4.2.47-5.79,5.26-5.93,5.69-.12.82-2.07,14.72-1.31,20.79a61.66,61.66,0,0,0,3.22,11.6A34.59,34.59,0,0,1,245,268.2c.09,1.05.05,2.56,0,4.3-.07,3.11-.17,7,.5,9.68C246.52,286.15,248.46,297.88,248.69,299.31Z" style="fill:#263238"></path><path d="M248.22,299.54a3.76,3.76,0,0,0,2.65,1.32,8.26,8.26,0,0,0,3.18-.79s.94-38.37,1-46.35l-10.55,17.41c-.06,3.36-.3,8,.49,11.17C246.1,286.54,248.22,299.54,248.22,299.54Z" style="fill:#263238"></path><path d="M250.87,301.36a4.25,4.25,0,0,1-3-1.51l-.08-.1,0-.13c0-.13-2.13-13-3.18-17.2-.7-2.82-.61-6.77-.53-9.95l0-1.48,11.57-19.1,0,1.84c-.1,7.89-1,46-1,46.35v.3l-.26.13A8.6,8.6,0,0,1,250.87,301.36Zm-2.18-2.05a3.18,3.18,0,0,0,2.18,1.05,7.39,7.39,0,0,0,2.69-.62c.08-3.44.83-34,1-44.18l-9.52,15.71,0,1.23c-.07,3.11-.17,7,.5,9.68C246.52,286.15,248.46,297.88,248.69,299.31Z" style="fill:#263238"></path><path d="M258.56,229.81a28.72,28.72,0,0,0-3.45,10.87c-.79,6.62,0,29.69.53,35.79S258,308,258,308l4.51-1.86s4.5-26.24,4.24-32.08-2.39-7.69-.27-15.91,5.05-19.75,1.33-30.29S258.56,229.81,258.56,229.81Z" style="fill:#CEC2F5"></path><path d="M257.58,308.75l-.05-.69c0-.26-1.86-25.52-2.38-31.55-.5-5.73-1.36-29-.53-35.89a29.08,29.08,0,0,1,3.5-11.05c.36-.8,3.05-6.58,6.22-6.42,1.59.07,2.93,1.6,4,4.57,3.79,10.76.72,22.69-1.32,30.58a20.81,20.81,0,0,0-.36,10.92,32.44,32.44,0,0,1,.64,4.84c.26,5.82-4.07,31.11-4.25,32.19l0,.27Zm6.65-84.6c-2.12,0-4.48,4.22-5.21,5.86l0,.06a28.64,28.64,0,0,0-3.37,10.66c-.76,6.38,0,29.35.53,35.7.48,5.46,2,26.75,2.34,30.86l3.61-1.48c.48-2.81,4.44-26.31,4.19-31.71a29.82,29.82,0,0,0-.63-4.69,22.08,22.08,0,0,1,.38-11.36c2-7.77,5-19.52,1.34-30-.88-2.51-1.94-3.85-3.07-3.9Z" style="fill:#263238"></path><path d="M255.88,177.38s-15.09,4.6-17.06,6.07-6.72,25.74-6.72,28.2a3,3,0,0,0,5.41,2c2.46-2.62,4.92-16.89,4.92-16.89s-1,6.56-.16,9.51,1.64,5.08,1.64,5.08l-3.12,18.2A23.63,23.63,0,0,0,252.92,232c6.89-.49,14.92-4.1,14.92-4.1l-2.29-16.39s2.79-5.91,2.79-7.87v-3s2.29,12.29,4.26,17.7,9.18,18.53,9.18,18.53l2.79-.66s-3.77-17.7-5.25-21.15-3.61-11-3.61-13-.82-16.07-1.47-18-10-5.25-12.95-6.23A11.56,11.56,0,0,0,255.88,177.38Z" style="fill:#fff"></path><path d="M281.53,237.47l-.19-.33c-.29-.54-7.25-13.21-9.21-18.6a121.1,121.1,0,0,1-3.48-13.7,45.53,45.53,0,0,1-2.59,6.72l2.33,16.62-.34.16c-.33.15-8.19,3.65-15.09,4.14A23.87,23.87,0,0,1,240.55,230l-.31-.17,3.15-18.42c-.19-.51-.9-2.46-1.6-5a10.86,10.86,0,0,1-.33-2.4c-1,4-2.25,8.57-3.58,10a3.54,3.54,0,0,1-4,1.14,3.78,3.78,0,0,1-2.31-3.45c0-2.4,4.7-26.93,6.92-28.6,2-1.51,16.59-6,17.21-6.14l.05,0a12.08,12.08,0,0,1,5.66.51C266.1,179,274,181.87,274.71,184s1.5,16.26,1.5,18.19,2.07,9.26,3.57,12.76,5.12,20.52,5.28,21.24l.1.48Zm-12.7-36.9c0,.13,2.31,12.32,4.24,17.63,1.76,4.84,7.83,16.05,9,18.13l1.94-.46c-.62-2.85-3.81-17.53-5.12-20.58-1.44-3.36-3.65-11-3.65-13.15s-.83-16-1.45-17.87c-.38-1.15-5.46-3.53-12.63-5.92a11.29,11.29,0,0,0-5.13-.48c-4.2,1.28-15.32,4.82-16.88,6s-6.52,24.63-6.52,27.8a2.76,2.76,0,0,0,1.67,2.52,2.58,2.58,0,0,0,2.88-.89c1.93-2.07,4.11-12.71,4.79-16.63l1,.16c0,.06-1,6.48-.18,9.3s1.62,5,1.62,5l0,.13-3.07,18a23.71,23.71,0,0,0,11.54,2.23c5.92-.42,12.81-3.22,14.41-3.91L265,211.41l.07-.14c.76-1.61,2.74-6.13,2.74-7.65v-3Z" style="fill:#263238"></path><path d="M254.73,176.24a4,4,0,0,0-2.79,1.47c-.82,1.31-2.29,10.17-2.29,10.17s7.37-2.46,7.87-2.79,8.19,3.77,8.19,3.77-.49-6.72-2.29-9.84S257,175.91,254.73,176.24Z" style="fill:#CEC2F5"></path><path d="M266.28,189.73l-.8-.43a62.66,62.66,0,0,0-7.82-3.72c-1,.48-6.21,2.22-7.86,2.77l-.78.26.13-.81c.16-.92,1.52-9,2.37-10.35a4.44,4.44,0,0,1,3.15-1.71c1.17-.17,7-.77,9.18,3,1.84,3.18,2.34,9.78,2.36,10Zm-8.74-5.15c.54,0,2.09.51,7.59,3.41-.21-1.93-.81-6.4-2.14-8.72-1.89-3.26-7.16-2.69-8.19-2.54h0a3.53,3.53,0,0,0-2.41,1.24c-.52.83-1.48,5.65-2.08,9.16,2.77-.93,6.58-2.24,7-2.47A.45.45,0,0,1,257.54,184.58Zm.25.93h0Z" style="fill:#263238"></path><path d="M253.74,175.91s-.32,6.56,0,7.87,2,5.57,3.28,5.57,3.28-6.06,3.45-6.72.65-6.72.65-6.72Z" style="fill:#fff"></path><path d="M257,189.85c-2,0-3.75-5.89-3.76-5.95-.34-1.34,0-7.34,0-8l0-.47h8.39l0,.54c-.05.62-.5,6.13-.67,6.8C260.93,182.82,258.91,189.85,257,189.85Zm-2.8-13.44a53.81,53.81,0,0,0,0,7.25c.47,1.86,2,5.19,2.79,5.19.79-.15,2.59-4.86,3-6.34.11-.42.41-3.76.6-6.1Z" style="fill:#263238"></path><path d="M252.92,158s-3.27,3.11-3.27,4.75-.5,7.71,1.31,10.66,4.42,5.57,7.21,5.08,4.92-3.6,5.25-5.74.65-4.75.65-4.75S258,166.24,252.92,158Z" style="fill:#fff"></path><path d="M257.47,179.09c-3.15,0-5.67-3.3-6.94-5.38-1.63-2.67-1.48-7.62-1.41-10,0-.37,0-.68,0-.91,0-1.8,3.08-4.78,3.43-5.11l.45-.43.32.52c4.91,7.92,10.81,9.77,10.87,9.79l.4.12-.05.42s-.33,2.66-.66,4.77-2.54,5.61-5.65,6.15A4.29,4.29,0,0,1,257.47,179.09Zm-4.64-20.26c-1.18,1.21-2.68,3-2.68,4,0,.24,0,.56,0,.94-.07,2.29-.21,7.05,1.26,9.46,1,1.64,3.67,5.38,6.7,4.85,2.56-.45,4.55-3.4,4.84-5.32.25-1.61.5-3.53.61-4.34C262.09,167.83,257.18,165.57,252.83,158.83Z" style="fill:#263238"></path><path d="M260.15,304.84s.52-.25,1.33-.6c2.95-1.29,9.81-4,9.81-1.52,0,3.18-9.81,10.07-11.67,10.34s-1.59-5-1.59-5A24.24,24.24,0,0,1,260.15,304.84Z" style="fill:#fff"></path><path d="M259.49,313.57a1.36,1.36,0,0,1-.91-.36c-1.22-1.12-1.07-4.8-1.05-5.22l.05-.19a24.94,24.94,0,0,1,2.17-3.26l.08-.1.11-.05s.52-.25,1.34-.61c5.3-2.32,8.63-3.07,9.89-2.25a1.35,1.35,0,0,1,.62,1.19c0,3.49-9.94,10.52-12.1,10.83Zm-1-5.42c0,1.41.09,3.73.74,4.32a.32.32,0,0,0,.29.09c1.86-.26,11.24-7.15,11.24-9.84a.34.34,0,0,0-.17-.35c-.7-.46-3.41-.09-8.94,2.33-.58.25-1,.45-1.2.54A29,29,0,0,0,258.52,308.15Z" style="fill:#263238"></path><path d="M281.78,236.9a4.08,4.08,0,0,1-1,2.95c-1.26,1.54-2.24,6.3-1.12,6.58s1-.42,1.4-1.68a7.1,7.1,0,0,1,1.12-2.1,10.13,10.13,0,0,1-.14,4.06c-.56,1.4-1.4,3.36-.56,3.78s1.83-.14,2.67-2.24a23.94,23.94,0,0,0,1.26-7,37.72,37.72,0,0,0-.79-5Z" style="fill:#fff"></path><path d="M282,251.12a1.69,1.69,0,0,1-.75-.18c-1.21-.6-.44-2.51.23-4.2l.09-.21a6.36,6.36,0,0,0,.25-2.34,4.7,4.7,0,0,0-.29.72c-.09.26-.15.49-.2.69-.21.78-.44,1.66-1.8,1.32a1.05,1.05,0,0,1-.73-.77c-.48-1.43.43-5.2,1.59-6.62a3.62,3.62,0,0,0,.94-2.56l-.07-.45,3.73-.88.11.5a37.64,37.64,0,0,1,.8,5.11,24.55,24.55,0,0,1-1.3,7.19,4.24,4.24,0,0,1-2,2.57A1.46,1.46,0,0,1,282,251.12Zm.5-9.64.17,1.09a10.53,10.53,0,0,1-.17,4.33l-.09.21c-.73,1.82-1,2.81-.71,2.94a.62.62,0,0,0,.53,0c.28-.11.84-.51,1.44-2a23.33,23.33,0,0,0,1.23-6.82,30.43,30.43,0,0,0-.68-4.4l-1.89.44a4.89,4.89,0,0,1-1.17,2.87c-1.16,1.42-1.84,5.34-1.35,5.8a.67.67,0,0,0,.33,0,2.18,2.18,0,0,0,.22-.64c.06-.22.13-.48.22-.76a7.84,7.84,0,0,1,1.21-2.26Z" style="fill:#263238"></path><rect x="251.6" y="194.18" width="7.42" height="15.55" style="fill:#263238"></rect><path d="M259.52,210.23H251.1V193.68h8.42Zm-7.42-1h6.42V194.68H252.1Z" style="fill:#263238"></path><path d="M248.37,205.11s2.53-5.47,3.51-5.89,5.88.42,5.88.42,1.12,1,.84,1.4-1.26.56-1.26.56h-1.26l-2.52.28L253,203a16.25,16.25,0,0,1,2.8,0c1,.14,2.8,1.26,2.8,1.82a1.31,1.31,0,0,1-.7,1.4c-.7.42-4.9,1.26-5.32,1.54a18.05,18.05,0,0,1-2.24,2.1c-1.41,1-3.51,0-3.51,0l-.56-1.4Z" style="fill:#fff"></path><path d="M248.8,210.8a5.69,5.69,0,0,1-2.18-.48l-.18-.08-.73-1.82,2.22-3.55c.79-1.71,2.71-5.66,3.75-6.11s5.32.25,6.16.39l.14,0,.11.1c.54.47,1.38,1.37.93,2a2.59,2.59,0,0,1-1.61.78h-1.33l-2.2.25,0,.11a13.73,13.73,0,0,1,2,0c1,.15,3.23,1.34,3.23,2.32a1.8,1.8,0,0,1-.94,1.83,18.94,18.94,0,0,1-3.21,1c-.81.2-1.92.48-2.11.58a4.19,4.19,0,0,0-.39.41,9,9,0,0,1-1.83,1.68A3.14,3.14,0,0,1,248.8,210.8Zm-1.58-1.31a3.31,3.31,0,0,0,2.83,0,8.54,8.54,0,0,0,1.65-1.52,3.3,3.3,0,0,1,.6-.59,11.66,11.66,0,0,1,2.41-.71,22.26,22.26,0,0,0,2.93-.84c.46-.28.46-.45.46-1a5,5,0,0,0-2.37-1.33,17.39,17.39,0,0,0-2.69,0l-.88.07,1.07-2.15,2.79-.31h1.32a2.16,2.16,0,0,0,.78-.27,3.21,3.21,0,0,0-.59-.72c-2.3-.39-4.94-.65-5.46-.43s-2.08,3.13-3.24,5.64l0,.05-2,3.15Z" style="fill:#263238"></path><path d="M246.27,208.47l-12,.14c-.85,0-1.87.34-2.13,3s-.82,4.66,1.28,5.5,16-6.72,16-6.72S246.83,210.43,246.27,208.47Z" style="fill:#fff"></path><path d="M233.74,217.7a1.4,1.4,0,0,1-.54-.08c-2.18-.87-2-2.78-1.71-5,0-.33.08-.67.11-1,.23-2.35,1.09-3.49,2.63-3.49l12-.14h.38l.1.37c.46,1.58,2.58,1.6,2.6,1.6h2l-1.73.94C247.4,212.07,236.9,217.7,233.74,217.7ZM245.92,209l-11.69.14c-.45,0-1.38,0-1.63,2.59,0,.36-.07.71-.11,1-.26,2.27-.33,3.39,1.08,3.95,1.11.44,7.91-2.62,14.3-6A3.13,3.13,0,0,1,245.92,209Z" style="fill:#263238"></path></g><g id="freepik--character-3--inject-3"><path d="M351.77,363.67s-7.69,3.62-9.13,6,.15,2.47,2.63,2.33,6.45-1.52,8.67-2.1,4.29,0,4.6-2.31a7.57,7.57,0,0,0-.21-3.59A4.92,4.92,0,0,0,351.77,363.67Z" style="fill:#fff"></path><path d="M344.09,372.5c-1.08,0-1.94-.16-2.32-.79s.05-1.69.45-2.34c1.46-2.37,8.6-5.8,9.29-6.13a5.45,5.45,0,0,1,7.18.37l.1.16a8,8,0,0,1,.25,3.85c-.28,2.05-1.82,2.25-3.31,2.44a12.51,12.51,0,0,0-1.66.28c-.56.15-1.24.35-2,.57a36.3,36.3,0,0,1-6.8,1.55C344.87,372.48,344.47,372.5,344.09,372.5ZM354.92,363a4.78,4.78,0,0,0-2.86,1l-.08.05c-2.1,1-7.79,4-8.91,5.77-.59,1-.47,1.26-.44,1.31.24.4,2,.3,2.61.26a36.17,36.17,0,0,0,6.57-1.51c.75-.22,1.44-.42,2-.57a12.93,12.93,0,0,1,1.78-.32c1.57-.2,2.28-.34,2.45-1.57a7.88,7.88,0,0,0-.15-3.26A4.61,4.61,0,0,0,354.92,363Z" style="fill:#263238"></path><path d="M373.61,366.66s-5.83,8.24-7.49,10.6,1.6,4.19,4.3,4,8.14-3.64,9.13-6,.44-7.7.44-7.7S376.11,367,373.61,366.66Z" style="fill:#fff"></path><path d="M370.07,381.8c-2,0-3.9-.89-4.61-2.16a2.44,2.44,0,0,1,.25-2.67l7.67-10.84.29,0c2.49.3,6.37,1,6.41,1l.37.06,0,.38c0,.23.55,5.54-.48,7.95s-6.59,6.08-9.56,6.26Zm3.78-14.61-7.32,10.36a1.42,1.42,0,0,0-.19,1.61c.56,1,2.38,1.73,4.05,1.63,2.59-.15,7.79-3.54,8.7-5.66.78-1.82.54-5.82.44-7.07C378.54,367.89,375.83,367.44,373.85,367.19Z" style="fill:#263238"></path><path d="M348.79,264.32s.39,18-.05,25.73,1.49,47.76,1.93,55.18,1.1,18.44,1.1,18.44,2.16,2.13,6.56.29c0,0,.46-18.76.79-24.65s4.63-39.77,4.76-41.36S365,282.09,365,282.09s4.4,36.07,4.82,43S373,367.6,373,367.6s1.15.38,2.75.74,4.25-.71,4.25-.71,1.27-12.71,1.57-19.05.55-32.53.08-40.4a155.93,155.93,0,0,1-.29-16.24c.16-1.13,2.12-28.79,1-32.33s-16.77,2.58-22.45,2S348.65,258.23,348.79,264.32Z" style="fill:#263238"></path><path d="M376.48,368.91a3.8,3.8,0,0,1-.84-.09,28.11,28.11,0,0,1-2.81-.75l-.31-.1,0-.33c0-.36-2.79-35.58-3.2-42.48-.32-5.26-3-27.45-4.18-37.74-.29,4.25-.66,9.63-.73,10.57,0,.47-.4,3.43-.95,7.91-1.34,10.94-3.58,29.25-3.81,33.44-.32,5.81-.78,24.44-.79,24.63v.32l-.3.13c-4.65,1.94-7-.3-7.1-.39l-.14-.14-1.11-18.63c-.44-7.38-2.37-47.57-1.93-55.24s.05-25.51.05-25.69c0-1.7.34-2.87,1.18-3.57,1.46-1.24,3.92-.77,6.77-.23,1.21.23,2.46.47,3.72.6,2.24.22,6.27-.68,10.16-1.54,6.4-1.43,11.92-2.66,12.72-.13,1.13,3.61-.82,31.31-1,32.55a157.21,157.21,0,0,0,.29,16.14c.47,7.82.23,33.88-.08,40.45-.29,6.28-1.56,18.95-1.57,19.08l0,.3-.28.12A12.15,12.15,0,0,1,376.48,368.91Zm-3-1.69c.45.14,1.32.39,2.39.63a8.11,8.11,0,0,0,3.67-.58c.2-2,1.27-13,1.54-18.71.31-6.56.55-32.55.08-40.35a153.38,153.38,0,0,1-.28-16.33c.17-1.25,2.09-28.73,1-32.12-.52-1.66-6.63-.29-11.54.8-4,.89-8.07,1.8-10.48,1.56-1.3-.13-2.57-.37-3.81-.6-2.6-.5-4.84-.93-5.94,0a3.41,3.41,0,0,0-.82,2.79h0c0,.18.39,18.14-.05,25.77s1.49,47.75,1.93,55.12l1.08,18.23c.5.37,2.31,1.45,5.59.19.06-2.54.48-18.94.78-24.34.23-4.22,2.48-22.55,3.82-33.5.52-4.31.9-7.43.94-7.87.13-1.57,1.08-15.71,1.09-15.86l1,0c.05.36,4.41,36.17,4.83,43.07C370.67,331.63,373.18,363.58,373.46,367.22Z" style="fill:#263238"></path><path d="M332.61,239.1s8.7,9.64,11.31,11.74,6.83.95,8.07-.93,1.15-18.58,1.15-18.58L349.9,211l-4.6,28.93-9.87-2.79S332.2,236,332.61,239.1Z" style="fill:#CEC2F5"></path><path d="M347.31,252.47a5.84,5.84,0,0,1-3.7-1.24c-2.61-2.1-11-11.4-11.37-11.79a.47.47,0,0,1-.12-.27,2.4,2.4,0,0,1,.66-2.32,3.23,3.23,0,0,1,2.82-.19l9.3,2.63,4.5-28.38a.5.5,0,0,1,1,0l3.24,20.34c0,1.8.07,17-1.22,18.93a5.88,5.88,0,0,1-4,2.2A7.49,7.49,0,0,1,347.31,252.47Zm-14.22-13.59c1,1.11,8.75,9.64,11.14,11.57a5.21,5.21,0,0,0,4.06.94,4.87,4.87,0,0,0,3.28-1.76c.85-1.27,1.11-11.9,1.07-18.29l-2.74-17.17L345.8,240a.5.5,0,0,1-.63.41l-9.88-2.8c-.35-.13-1.4-.37-1.88,0A1.38,1.38,0,0,0,333.09,238.88Z" style="fill:#263238"></path><path d="M365.09,204.67s-13,4.83-14.57,5.38-2.22,8.26-2.11,13.89-.78,40,.69,41.94,4.44,2.44,10.29,2.09,16.7-3.7,20-5.47a17.35,17.35,0,0,0,4.13-2.73s2.83-32,3.75-39.27-1.34-11.21-4.19-13.52S365.09,204.67,365.09,204.67Z" style="fill:#CEC2F5"></path><path d="M356.35,268.58c-4.2,0-6.38-.72-7.64-2.4-1-1.33-1.08-12.77-.85-33.4,0-4.14.08-7.41.05-8.83,0-.13-.18-13.45,2.44-14.37,1.53-.54,14.44-5.33,14.57-5.38l.17,0c.63,0,15.34,0,18.29,2.42,3.69,3,5.16,7.7,4.37,14-.91,7.19-3.73,38.93-3.75,39.25l0,.17-.11.12a17.48,17.48,0,0,1-4.26,2.84c-3.39,1.83-14.23,5.18-20.19,5.53C358.29,268.54,357.27,268.58,356.35,268.58Zm8.83-63.41c-1.12.41-13,4.83-14.49,5.35-.92.32-1.91,6.38-1.78,13.41,0,1.44,0,4.72-.05,8.86-.11,10.17-.35,31.33.64,32.79,1.3,1.71,4.06,2.24,9.86,1.9s16.46-3.63,19.77-5.42a21,21,0,0,0,3.89-2.52c.23-2.63,2.86-32.19,3.74-39.1.75-6-.56-10.26-4-13.07C380.54,205.58,369.41,205.17,365.18,205.17Z" style="fill:#263238"></path><path d="M365.09,204.67l-4.39,1.63a49.49,49.49,0,0,0-2.12,12.58c0,7.85,2.45,7.36,6.87,2.94,3.56-3.56,8.41-11,11.17-16.53C371.39,204.67,365.09,204.67,365.09,204.67Z" style="fill:#fff"></path><path d="M360.74,225.5a1.81,1.81,0,0,1-.74-.15c-1.33-.55-1.92-2.54-1.92-6.47a50.74,50.74,0,0,1,2.14-12.72l.07-.25,4.8-1.74c.07,0,6.39,0,11.59.62l.71.09-.32.63c-2.59,5.2-7.41,12.81-11.27,16.67C363.53,224.45,362,225.5,360.74,225.5Zm.38-18.82a48.53,48.53,0,0,0-2,12.2c0,4.14.71,5.3,1.3,5.55.82.34,2.41-.66,4.71-3,3.5-3.5,8.11-10.6,10.76-15.76-4.65-.5-9.92-.54-10.67-.54Z" style="fill:#263238"></path><path d="M361.65,203.74s1.48,5.78,1,9.2-1.24,5.71.34,5.62,7-7.41,7.5-10.38.31-13.78.31-13.78Z" style="fill:#fff"></path><path d="M362.9,219.06a1.24,1.24,0,0,1-1-.39c-.61-.67-.39-2-.06-3.94.09-.57.2-1.2.29-1.86.45-3.28-1-9-1-9l-.07-.28,10.18-10.4,0,1.2c0,.44.19,10.9-.31,13.87s-5.95,10.68-8,10.8Zm-.69-15.17c.29,1.21,1.37,6,.94,9.12-.1.67-.2,1.3-.3,1.88-.23,1.38-.46,2.8-.18,3.11,0,.05.14.07.29.06,1.13-.07,6.54-7,7-10,.39-2.31.35-9.6.32-12.5Z" style="fill:#263238"></path><path d="M352,182s1.53,10.52,2.42,14.08,3.3,10,5.11,10.08,8.75-4.59,10.21-6.71,1.3-8.42,1.54-12-1.15-7.83-3.46-8.82S353.21,179.42,352,182Z" style="fill:#fff"></path><path d="M359.59,206.63h-.08c-2.5-.16-5-8.28-5.57-10.45-.89-3.54-2.37-13.69-2.43-14.12l0-.15.06-.14c1.39-2.95,14.24-4.63,16.47-3.67,2.63,1.12,4,5.71,3.77,9.31-.05.78-.09,1.69-.12,2.65-.14,3.69-.29,7.88-1.51,9.66C368.63,201.93,361.75,206.63,359.59,206.63Zm-7.06-24.56c.19,1.35,1.57,10.61,2.38,13.86,1.08,4.3,3.44,9.62,4.66,9.7,1.53.08,8.37-4.45,9.76-6.49,1.06-1.54,1.22-5.75,1.34-9.13,0-1,.07-1.88.12-2.67.24-3.68-1.21-7.5-3.16-8.33S353.94,179.87,352.53,182.07Z" style="fill:#263238"></path><path d="M365.53,181.62a74.55,74.55,0,0,1-11.87,1.61c-7,.41-7.85-2.92-6-6.41s8.25-9.3,18-8.3,10.74,9.74,10.24,12.71-1.8,7.78-1.8,7.78-1.73-2.61-2.8-1.64-1,5.25-1,5.25l-2.44.83a12.85,12.85,0,0,0-1.07-2.87c-.49-.65-3.73-2-3.8-3.16S365.53,181.62,365.53,181.62Z" style="fill:#263238"></path><path d="M367.46,194.09l-.13-.52a12.05,12.05,0,0,0-1-2.69,6.92,6.92,0,0,0-1.19-.82c-1.55-1-2.66-1.71-2.71-2.61s1.29-3.59,2.12-5.11a78.72,78.72,0,0,1-10.87,1.39c-3.5.21-5.8-.49-6.82-2.07-.83-1.28-.72-3.08.32-5.07,2-3.84,8.81-9.55,18.51-8.57a11.51,11.51,0,0,1,8.37,4.32,12.64,12.64,0,0,1,2.31,9c-.5,2.95-1.79,7.78-1.8,7.83l-.29,1.06-.61-.91c-.43-.64-1.27-1.56-1.8-1.63a.31.31,0,0,0-.26.08c-.62.56-.89,3.19-.87,4.88V193Zm-.93-13.23-.57,1c-1.27,2.23-2.56,4.91-2.52,5.52s1.52,1.37,2.23,1.82a6,6,0,0,1,1.47,1.06,10.13,10.13,0,0,1,1,2.53l1.6-.54c0-1.21.16-4.32,1.2-5.26a1.28,1.28,0,0,1,1.05-.33,3.39,3.39,0,0,1,1.86,1.24c.41-1.56,1.18-4.66,1.53-6.76a11.49,11.49,0,0,0-2.12-8.2A10.5,10.5,0,0,0,365.6,169c-9.22-1-15.64,4.42-17.52,8-.87,1.66-1,3.11-.37,4.07.8,1.24,2.84,1.79,5.92,1.61a73.12,73.12,0,0,0,11.78-1.6Z" style="fill:#263238"></path><path d="M369.62,193.56s.69-7.49,3.44-6.75,1.8,3.73.37,6.3a7.78,7.78,0,0,1-3.18,3.35" style="fill:#fff"></path><path d="M370.45,196.92,370,196a7.36,7.36,0,0,0,3-3.13c1.16-2.1,1.57-3.7,1.18-4.63a1.73,1.73,0,0,0-1.25-.94.84.84,0,0,0-.75.13c-1.31.92-1.93,4.77-2.06,6.18l-1-.09c.05-.57.56-5.57,2.48-6.91a1.86,1.86,0,0,1,1.58-.28,2.67,2.67,0,0,1,1.91,1.52c.52,1.24.11,3.09-1.23,5.5A8.3,8.3,0,0,1,370.45,196.92Z" style="fill:#263238"></path><path d="M380.92,212.75s-1.67,6-1.51,8.67,11.86,32.47,12.18,34,4.65,2.2,6.8.5,3.15-4,1.66-10c-.92-3.72-10.55-29.39-11.23-33.19s-3.31-6.35-5.76-5.75" style="fill:#CEC2F5"></path><path d="M395,257.46a6.57,6.57,0,0,1-2.26-.37,2.33,2.33,0,0,1-1.67-1.54c-.11-.52-1.84-5.12-3.67-10-4.6-12.21-8.42-22.45-8.52-24.12-.16-2.75,1.46-8.59,1.53-8.83l1,.27c0,.06-1.65,5.91-1.49,8.5.1,1.65,5.13,15,8.45,23.83,2.3,6.08,3.6,9.56,3.72,10.13.06.29.44.59,1,.8a5.64,5.64,0,0,0,5-.6c2-1.57,2.92-3.71,1.49-9.51-.4-1.6-2.49-7.48-4.7-13.7-3-8.52-6.15-17.34-6.54-19.52A7.34,7.34,0,0,0,385.5,208a2.91,2.91,0,0,0-2.32-.48l-.24-1a3.91,3.91,0,0,1,3.1.61,8.33,8.33,0,0,1,3.27,5.53c.38,2.11,3.63,11.28,6.51,19.37,2.31,6.51,4.31,12.14,4.72,13.79,1.56,6.3.39,8.77-1.84,10.54A6,6,0,0,1,395,257.46Z" style="fill:#263238"></path><path d="M372,262.94s-.22,0-1.93,1.69a6.72,6.72,0,0,0-1.78,4.17l4.25,3.13,1.94-5.3Z" style="fill:#fff"></path><path d="M372.73,272.73l-5-3.68v-.26a7.17,7.17,0,0,1,1.93-4.51c1.84-1.82,2.09-1.83,2.25-1.84l.29,0,2.77,4.14Zm-4-4.17,3.49,2.58,1.62-4.45-2.05-3.05c-.26.21-.7.61-1.45,1.35A6.13,6.13,0,0,0,368.76,268.56Z" style="fill:#263238"></path><path d="M393.7,245.39s-8.66,6.16-11.64,9.27c-2,2.09-10.11,8.28-10.11,8.28l2.48,3.69s4.74-2.32,9-4.15c5.5-2.36,16.13-2.09,17.42-10.74" style="fill:#CEC2F5"></path><path d="M374.25,267.27l-3-4.44.38-.29c.08-.06,8.11-6.19,10.05-8.22,3-3.11,11.36-9.08,11.71-9.34l.58.82c-.09.06-8.66,6.17-11.56,9.21-1.78,1.85-8.16,6.78-9.8,8l2,2.94c1.23-.6,5.11-2.46,8.64-4a34.36,34.36,0,0,1,5.09-1.52c5.21-1.29,11.12-2.74,12-8.84l1,.15c-1,6.76-7.53,8.37-12.77,9.66a33.67,33.67,0,0,0-4.94,1.47c-4.2,1.8-8.94,4.11-9,4.14Z" style="fill:#263238"></path><polygon points="329.59 226.19 336.65 242.47 344.11 242.7 337.47 225.95 329.59 226.19" style="fill:#263238"></polygon><path d="M344.86,243.23l-8.54-.27-7.48-17.25,9-.27ZM337,242l6.39.2-6.23-15.72-6.8.21Z" style="fill:#263238"></path><path d="M335.39,232.62s-4.81-1.07-5.41.09,2.2,6.64,3.4,7.92,4.1.66,5.64-.11.19-4.3-.73-4.69a46,46,0,0,0-5.48-1s4.1.66,4.72-.28S337.21,233,335.39,232.62Z" style="fill:#fff"></path><path d="M335.57,241.86A3.38,3.38,0,0,1,333,241c-1.11-1.18-4.3-6.95-3.49-8.5.71-1.36,4.4-.7,6-.35s2.36.73,2.64,1.38a1.31,1.31,0,0,1-.18,1.28,1,1,0,0,1-.34.32,5.62,5.62,0,0,1,.87.26c.91.39,1.7,2.29,1.73,3.6a2,2,0,0,1-1,2A8.78,8.78,0,0,1,335.57,241.86Zm-3.82-9.19c-.73,0-1.23.09-1.33.27-.38.74,1.95,5.89,3.33,7.35,1,1,3.55.54,5-.21.37-.19.44-.69.43-1.08a4.06,4.06,0,0,0-1.13-2.71,34.16,34.16,0,0,0-4.64-.89l-.72-.11.15-1,.61.08c1.77.22,3.42.17,3.63-.15s.1-.31.09-.34-.29-.49-1.91-.79h0A17.82,17.82,0,0,0,331.75,232.67Z" style="fill:#263238"></path></g></svg>