<svg width="100" height="100" viewBox="0 0 179 156" fill="none" xmlns="http://www.w3.org/2000/svg">
		<path d="M52 53.7654C52 42.8493 60.6558 34 71.3333 34H146C156.678 34 165.333 42.8493 165.333 53.7654V120.559C165.333 131.475 156.678 140.324 146 140.324H71.3333C60.6558 140.324 52 131.475 52 120.559V53.7654Z" fill="#BF9EE9"/>
		<path d="M149.333 125.67H104.667L179 156L149.333 83.7542V125.67Z" fill="#BF9EE9"/>
		<g opacity="0.8">
		<path d="M16.9588 20.7072C16.9588 9.8232 25.5923 1 36.2423 1H110.716C121.366 1 130 9.82321 130 20.7072V87.3039C130 98.1879 121.366 107.011 110.716 107.011H36.2423C25.5923 107.011 16.9588 98.1878 16.9588 87.3039V20.7072Z" fill="#FFFDFD"/>
		<path d="M31.7844 90.9068H78.134L1 124L31.7844 45.1713V90.9068Z" fill="white"/>
		<path d="M78.134 90.9068L78.3312 91.3663L78.134 90.4068V90.9068ZM31.7844 90.9068H31.2844V91.4068H31.7844V90.9068ZM31.7844 45.1713H32.2844L31.3187 44.9894L31.7844 45.1713ZM1 124L0.534255 123.818L0.0999498 124.93L1.19714 124.46L1 124ZM36.2423 1.5H110.716V0.5H36.2423V1.5ZM129.5 20.7072V87.3039H130.5V20.7072H129.5ZM110.716 106.511H36.2423V107.511H110.716V106.511ZM17.4588 87.3039V20.7072H16.4588V87.3039H17.4588ZM36.2423 106.511C25.8786 106.511 17.4588 97.922 17.4588 87.3039H16.4588C16.4588 98.4537 25.306 107.511 36.2423 107.511V106.511ZM129.5 87.3039C129.5 97.922 121.08 106.511 110.716 106.511V107.511C121.653 107.511 130.5 98.4537 130.5 87.3039H129.5ZM110.716 1.5C121.08 1.5 129.5 10.0891 129.5 20.7072H130.5C130.5 9.55736 121.653 0.5 110.716 0.5V1.5ZM36.2423 0.5C25.306 0.5 16.4588 9.55736 16.4588 20.7072H17.4588C17.4588 10.089 25.8786 1.5 36.2423 1.5V0.5ZM78.134 90.4068H31.7844V91.4068H78.134V90.4068ZM32.2844 90.9068V45.1713H31.2844V90.9068H32.2844ZM31.3187 44.9894L0.534255 123.818L1.46574 124.182L32.2502 45.3532L31.3187 44.9894ZM1.19714 124.46L78.3312 91.3663L77.9369 90.4473L0.80286 123.541L1.19714 124.46Z" fill="white"/>
		</g>
		</svg>